<?xml version="1.0" encoding="utf-8"?>
<!-- Generator: Adobe Illustrator 19.1.0, SVG Export Plug-In . SVG Version: 6.00 Build 0)  -->
<svg version="1.1" id="Lag_1" xmlns="http://www.w3.org/2000/svg" xmlns:xlink="http://www.w3.org/1999/xlink" x="0px" y="0px"
	 viewBox="-26 113.4 1226.6 574.6" style="enable-background:new -26 113.4 1226.6 574.6;" xml:space="preserve">
<style type="text/css">
	.st0{fill:none;stroke:#000000;stroke-width:0.9;}
	.st1{fill:#FFFFFF;stroke:#000000;stroke-miterlimit:10;}
</style>
<g transform="translate(22.5000185, 22.5000185) ">
	<polygon class="st0" points="-30.5,108.9 -3.6,108.9 -3.6,117.4 23.4,117.4 23.4,108.9 40.4,108.9 40.4,117.4 57.4,117.4 
		57.4,108.9 74.4,108.9 74.4,117.4 91.4,117.4 91.4,108.9 108.4,108.9 108.4,117.4 125.4,117.4 125.4,108.9 142.4,108.9 
		142.4,117.4 159.4,117.4 159.4,108.9 176.4,108.9 176.4,117.4 193.4,117.4 193.4,108.9 210.4,108.9 210.4,117.4 227.5,117.4 
		227.5,108.9 244.5,108.9 244.5,117.4 261.5,117.4 261.5,108.9 278.5,108.9 278.5,117.4 295.5,117.4 295.5,108.9 312.5,108.9 
		312.5,117.4 339.4,117.4 339.4,108.9 366.4,108.9 366.4,131.6 357.8,131.6 357.8,154.3 366.4,154.3 366.4,171.3 357.8,171.3 
		357.8,188.3 366.4,188.3 366.4,205.3 357.8,205.3 357.8,228 366.4,228 366.4,250.6 339.4,250.6 339.4,242.1 312.5,242.1 
		312.5,250.6 295.5,250.6 295.5,242.1 278.5,242.1 278.5,250.6 261.5,250.6 261.5,242.1 244.5,242.1 244.5,250.6 227.5,250.6 
		227.5,242.1 210.4,242.1 210.4,250.6 193.4,250.6 193.4,242.1 176.4,242.1 176.4,250.6 159.4,250.6 159.4,242.1 142.4,242.1 
		142.4,250.6 125.4,250.6 125.4,242.1 108.4,242.1 108.4,250.6 91.4,250.6 91.4,242.1 74.4,242.1 74.4,250.6 57.4,250.6 57.4,242.1 
		40.4,242.1 40.4,250.6 23.4,250.6 23.4,242.1 -3.6,242.1 -3.6,250.6 -30.5,250.6 -30.5,228 -22,228 -22,205.3 -30.5,205.3 
		-30.5,188.3 -22,188.3 -22,171.3 -30.5,171.3 -30.5,154.3 -22,154.3 -22,131.6 -30.5,131.6 	"/>
</g>
<g transform="translate(518.5634185, 22.5000185) ">
	<polygon class="st0" points="-129.7,108.9 -102.8,108.9 -102.8,117.4 -75.9,117.4 -75.9,108.9 -58.8,108.9 -58.8,117.4 
		-41.8,117.4 -41.8,108.9 -24.8,108.9 -24.8,117.4 -7.8,117.4 -7.8,108.9 9.2,108.9 9.2,117.4 26.2,117.4 26.2,108.9 43.2,108.9 
		43.2,117.4 60.2,117.4 60.2,108.9 77.2,108.9 77.2,117.4 94.2,117.4 94.2,108.9 111.2,108.9 111.2,117.4 128.2,117.4 128.2,108.9 
		145.2,108.9 145.2,117.4 162.3,117.4 162.3,108.9 179.3,108.9 179.3,117.4 196.3,117.4 196.3,108.9 213.3,108.9 213.3,117.4 
		240.2,117.4 240.2,108.9 267.1,108.9 267.1,131.6 258.6,131.6 258.6,154.3 267.1,154.3 267.1,171.3 258.6,171.3 258.6,188.3 
		267.1,188.3 267.1,205.3 258.6,205.3 258.6,228 267.1,228 267.1,250.6 240.2,250.6 240.2,242.1 213.3,242.1 213.3,250.6 
		196.3,250.6 196.3,242.1 179.3,242.1 179.3,250.6 162.3,250.6 162.3,242.1 145.2,242.1 145.2,250.6 128.2,250.6 128.2,242.1 
		111.2,242.1 111.2,250.6 94.2,250.6 94.2,242.1 77.2,242.1 77.2,250.6 60.2,250.6 60.2,242.1 43.2,242.1 43.2,250.6 26.2,250.6 
		26.2,242.1 9.2,242.1 9.2,250.6 -7.8,250.6 -7.8,242.1 -24.8,242.1 -24.8,250.6 -41.8,250.6 -41.8,242.1 -58.8,242.1 -58.8,250.6 
		-75.9,250.6 -75.9,242.1 -102.8,242.1 -102.8,250.6 -129.7,250.6 -129.7,228 -121.2,228 -121.2,205.3 -129.7,205.3 -129.7,188.3 
		-121.2,188.3 -121.2,171.3 -129.7,171.3 -129.7,154.3 -121.2,154.3 -121.2,131.6 -129.7,131.6 	"/>
</g>
<g transform="translate(1014.6268185, 22.5000185) ">
	<polygon class="st0" points="-220.4,108.9 -202,108.9 -202,117.4 -175.1,117.4 -175.1,108.9 -158.1,108.9 -158.1,117.4 
		-141.1,117.4 -141.1,108.9 -124,108.9 -124,117.4 -107,117.4 -107,108.9 -90,108.9 -90,117.4 -73,117.4 -73,108.9 -56,108.9 
		-56,117.4 -39,117.4 -39,108.9 -22,108.9 -22,117.4 -5,117.4 -5,108.9 12,108.9 12,117.4 29,117.4 29,108.9 46,108.9 46,117.4 
		63,117.4 63,108.9 80.1,108.9 80.1,117.4 97.1,117.4 97.1,108.9 114.1,108.9 114.1,117.4 141,117.4 141,108.9 159.4,108.9 
		159.4,131.6 167.9,131.6 167.9,154.3 159.4,154.3 159.4,171.3 167.9,171.3 167.9,188.3 159.4,188.3 159.4,205.3 167.9,205.3 
		167.9,228 159.4,228 159.4,250.6 141,250.6 141,242.1 114.1,242.1 114.1,250.6 97.1,250.6 97.1,242.1 80.1,242.1 80.1,250.6 
		63,250.6 63,242.1 46,242.1 46,250.6 29,250.6 29,242.1 12,242.1 12,250.6 -5,250.6 -5,242.1 -22,242.1 -22,250.6 -39,250.6 
		-39,242.1 -56,242.1 -56,250.6 -73,250.6 -73,242.1 -90,242.1 -90,250.6 -107,250.6 -107,242.1 -124,242.1 -124,250.6 
		-141.1,250.6 -141.1,242.1 -158.1,242.1 -158.1,250.6 -175.1,250.6 -175.1,242.1 -202,242.1 -202,250.6 -220.4,250.6 -220.4,228 
		-228.9,228 -228.9,205.3 -220.4,205.3 -220.4,188.3 -228.9,188.3 -228.9,171.3 -220.4,171.3 -220.4,154.3 -228.9,154.3 
		-228.9,131.6 -220.4,131.6 	"/>
</g>
<g transform="translate(1014.6268185, 199.6655185) ">
	<polygon class="st0" points="-220.4,73.5 -202,73.5 -202,82 -175.1,82 -175.1,73.5 -158.1,73.5 -158.1,82 -141.1,82 -141.1,73.5 
		-124,73.5 -124,82 -107,82 -107,73.5 -90,73.5 -90,82 -73,82 -73,73.5 -56,73.5 -56,82 -39,82 -39,73.5 -22,73.5 -22,82 -5,82 
		-5,73.5 12,73.5 12,82 29,82 29,73.5 46,73.5 46,82 63,82 63,73.5 80.1,73.5 80.1,82 97.1,82 97.1,73.5 114.1,73.5 114.1,82 
		141,82 141,73.5 159.4,73.5 159.4,96.2 167.9,96.2 167.9,118.8 159.4,118.8 159.4,135.8 167.9,135.8 167.9,152.9 159.4,152.9 
		159.4,169.9 167.9,169.9 167.9,192.5 159.4,192.5 159.4,215.2 141,215.2 141,206.7 114.1,206.7 114.1,215.2 97.1,215.2 97.1,206.7 
		80.1,206.7 80.1,215.2 63,215.2 63,206.7 46,206.7 46,215.2 29,215.2 29,206.7 12,206.7 12,215.2 -5,215.2 -5,206.7 -22,206.7 
		-22,215.2 -39,215.2 -39,206.7 -56,206.7 -56,215.2 -73,215.2 -73,206.7 -90,206.7 -90,215.2 -107,215.2 -107,206.7 -124,206.7 
		-124,215.2 -141.1,215.2 -141.1,206.7 -158.1,206.7 -158.1,215.2 -175.1,215.2 -175.1,206.7 -202,206.7 -202,215.2 -220.4,215.2 
		-220.4,192.5 -228.9,192.5 -228.9,169.9 -220.4,169.9 -220.4,152.9 -228.9,152.9 -228.9,135.8 -220.4,135.8 -220.4,118.8 
		-228.9,118.8 -228.9,96.2 -220.4,96.2 	"/>
</g>
<g transform="translate(22.5000185, 199.6655185) ">
	<polygon class="st0" points="-22,82 -3.6,82 -3.6,73.5 23.4,73.5 23.4,82 40.4,82 40.4,73.5 57.4,73.5 57.4,82 74.4,82 74.4,73.5 
		91.4,73.5 91.4,82 108.4,82 108.4,73.5 125.4,73.5 125.4,82 142.4,82 142.4,73.5 159.4,73.5 159.4,82 176.4,82 176.4,73.5 
		193.4,73.5 193.4,82 210.4,82 210.4,73.5 227.5,73.5 227.5,82 244.5,82 244.5,73.5 261.5,73.5 261.5,82 278.5,82 278.5,73.5 
		295.5,73.5 295.5,82 312.5,82 312.5,73.5 339.4,73.5 339.4,82 357.8,82 357.8,100.4 366.4,100.4 366.4,127.3 357.8,127.3 
		357.8,144.4 366.4,144.4 366.4,161.4 357.8,161.4 357.8,178.4 366.4,178.4 366.4,195.4 357.8,195.4 357.8,212.4 366.4,212.4 
		366.4,229.4 357.8,229.4 357.8,246.4 366.4,246.4 366.4,263.4 357.8,263.4 357.8,280.4 366.4,280.4 366.4,297.4 357.8,297.4 
		357.8,314.4 366.4,314.4 366.4,331.4 357.8,331.4 357.8,348.4 366.4,348.4 366.4,365.5 357.8,365.5 357.8,382.5 366.4,382.5 
		366.4,399.5 357.8,399.5 357.8,416.5 366.4,416.5 366.4,443.4 357.8,443.4 357.8,461.8 339.4,461.8 339.4,470.3 312.5,470.3 
		312.5,461.8 295.5,461.8 295.5,470.3 278.5,470.3 278.5,461.8 261.5,461.8 261.5,470.3 244.5,470.3 244.5,461.8 227.5,461.8 
		227.5,470.3 210.4,470.3 210.4,461.8 193.4,461.8 193.4,470.3 176.4,470.3 176.4,461.8 159.4,461.8 159.4,470.3 142.4,470.3 
		142.4,461.8 125.4,461.8 125.4,470.3 108.4,470.3 108.4,461.8 91.4,461.8 91.4,470.3 74.4,470.3 74.4,461.8 57.4,461.8 57.4,470.3 
		40.4,470.3 40.4,461.8 23.4,461.8 23.4,470.3 -3.6,470.3 -3.6,461.8 -22,461.8 -22,443.4 -30.5,443.4 -30.5,416.5 -22,416.5 
		-22,399.5 -30.5,399.5 -30.5,382.5 -22,382.5 -22,365.5 -30.5,365.5 -30.5,348.4 -22,348.4 -22,331.4 -30.5,331.4 -30.5,314.4 
		-22,314.4 -22,297.4 -30.5,297.4 -30.5,280.4 -22,280.4 -22,263.4 -30.5,263.4 -30.5,246.4 -22,246.4 -22,229.4 -30.5,229.4 
		-30.5,212.4 -22,212.4 -22,195.4 -30.5,195.4 -30.5,178.4 -22,178.4 -22,161.4 -30.5,161.4 -30.5,144.4 -22,144.4 -22,127.3 
		-30.5,127.3 -30.5,100.4 -22,100.4 	"/>
</g>
<g transform="translate(518.5634185, 199.6655185) ">
	<polygon class="st0" points="-121.2,82 -102.8,82 -102.8,73.5 -75.9,73.5 -75.9,82 -58.8,82 -58.8,73.5 -41.8,73.5 -41.8,82 
		-24.8,82 -24.8,73.5 -7.8,73.5 -7.8,82 9.2,82 9.2,73.5 26.2,73.5 26.2,82 43.2,82 43.2,73.5 60.2,73.5 60.2,82 77.2,82 77.2,73.5 
		94.2,73.5 94.2,82 111.2,82 111.2,73.5 128.2,73.5 128.2,82 145.2,82 145.2,73.5 162.3,73.5 162.3,82 179.3,82 179.3,73.5 
		196.3,73.5 196.3,82 213.3,82 213.3,73.5 240.2,73.5 240.2,82 258.6,82 258.6,100.4 267.1,100.4 267.1,127.3 258.6,127.3 
		258.6,144.4 267.1,144.4 267.1,161.4 258.6,161.4 258.6,178.4 267.1,178.4 267.1,195.4 258.6,195.4 258.6,212.4 267.1,212.4 
		267.1,229.4 258.6,229.4 258.6,246.4 267.1,246.4 267.1,263.4 258.6,263.4 258.6,280.4 267.1,280.4 267.1,297.4 258.6,297.4 
		258.6,314.4 267.1,314.4 267.1,331.4 258.6,331.4 258.6,348.4 267.1,348.4 267.1,365.5 258.6,365.5 258.6,382.5 267.1,382.5 
		267.1,399.5 258.6,399.5 258.6,416.5 267.1,416.5 267.1,443.4 258.6,443.4 258.6,461.8 240.2,461.8 240.2,470.3 213.3,470.3 
		213.3,461.8 196.3,461.8 196.3,470.3 179.3,470.3 179.3,461.8 162.3,461.8 162.3,470.3 145.2,470.3 145.2,461.8 128.2,461.8 
		128.2,470.3 111.2,470.3 111.2,461.8 94.2,461.8 94.2,470.3 77.2,470.3 77.2,461.8 60.2,461.8 60.2,470.3 43.2,470.3 43.2,461.8 
		26.2,461.8 26.2,470.3 9.2,470.3 9.2,461.8 -7.8,461.8 -7.8,470.3 -24.8,470.3 -24.8,461.8 -41.8,461.8 -41.8,470.3 -58.8,470.3 
		-58.8,461.8 -75.9,461.8 -75.9,470.3 -102.8,470.3 -102.8,461.8 -121.2,461.8 -121.2,443.4 -129.7,443.4 -129.7,416.5 
		-121.2,416.5 -121.2,399.5 -129.7,399.5 -129.7,382.5 -121.2,382.5 -121.2,365.5 -129.7,365.5 -129.7,348.4 -121.2,348.4 
		-121.2,331.4 -129.7,331.4 -129.7,314.4 -121.2,314.4 -121.2,297.4 -129.7,297.4 -129.7,280.4 -121.2,280.4 -121.2,263.4 
		-129.7,263.4 -129.7,246.4 -121.2,246.4 -121.2,229.4 -129.7,229.4 -129.7,212.4 -121.2,212.4 -121.2,195.4 -129.7,195.4 
		-129.7,178.4 -121.2,178.4 -121.2,161.4 -129.7,161.4 -129.7,144.4 -121.2,144.4 -121.2,127.3 -129.7,127.3 -129.7,100.4 
		-121.2,100.4 	"/>
</g>
<rect x="133.7" y="422.2" class="st1" width="113.4" height="98.8"/>
<rect x="530.6" y="422.2" class="st1" width="113.4" height="98.8"/>
</svg>
